Coordinates
version=1
nRows=13
nColumns=40
inDegrees=yes

Units are S.I. units (second, meters, Newtons, ...)
If the header above contains a line with 'inDegrees', this indicates whether rotational values are in degrees (yes) or radians (no).

endheader
time	pelvis_tilt	pelvis_list	pelvis_rotation	pelvis_tx	pelvis_ty	pelvis_tz	hip_flexion_r	hip_adduction_r	hip_rotation_r	knee_angle_r	knee_angle_r_beta	ankle_angle_r	subtalar_angle_r	mtp_angle_r	hip_flexion_l	hip_adduction_l	hip_rotation_l	knee_angle_l	knee_angle_l_beta	ankle_angle_l	subtalar_angle_l	mtp_angle_l	lumbar_extension	lumbar_bending	lumbar_rotation	arm_flex_r	arm_add_r	arm_rot_r	elbow_flex_r	pro_sup_r	wrist_flex_r	wrist_dev_r	arm_flex_l	arm_add_l	arm_rot_l	elbow_flex_l	pro_sup_l	wrist_flex_l	wrist_dev_l
      3.30000000	     -3.10941354	      5.10034800	     -1.45642071	     -0.43173886	      0.73694373	     -0.79597053	     55.20803567	     -1.81380436	     -6.40272691	     86.15700949	      1.50372349	     27.93851300	      0.00000000	      0.00000000	     62.37258324	     -4.75612154	    -11.15215966	     23.84851085	      0.41623504	    -25.38593600	      0.00000000	      0.00000000	    -24.94925267	    -28.09493022	    -17.97026467	     81.73757281	    -13.02560723	     16.58279896	     53.09673991	     87.55753483	      0.00000000	      0.00000000	     89.96714378	     12.21838603	     23.48768109	     41.49846144	     30.37675596	      0.00000000	      0.00000000
      3.30500000	     -3.19833996	      5.06769707	     -1.46859739	     -0.43215726	      0.73608185	     -0.79596250	     55.40526457	     -1.79346774	     -6.42991806	     86.26602824	      1.50562623	     27.87785387	      0.00000000	      0.00000000	     62.56750606	     -4.80801193	    -11.21160696	     23.86994634	      0.41660916	    -25.44752793	      0.00000000	      0.00000000	    -24.89490146	    -28.05285327	    -17.91338054	     81.86226582	    -13.03599173	     16.54635361	     53.05634477	     87.55676907	      0.00000000	      0.00000000	     89.96722547	     12.28626292	     23.29140028	     41.72434496	     29.88718994	      0.00000000	      0.00000000
      3.31000000	     -3.25842066	      5.05172044	     -1.47518766	     -0.43259778	      0.73523572	     -0.79598109	     55.57549772	     -1.79886370	     -6.46099519	     86.39209189	      1.50782645	     27.93955806	      0.00000000	      0.00000000	     62.72880508	     -4.84408034	    -11.30175023	     23.90269913	      0.41718080	    -25.46664147	      0.00000000	      0.00000000	    -24.86251714	    -28.01377378	    -17.84634242	     81.99390001	    -13.06681232	     16.53582337	     53.00745678	     87.55876706	      0.00000000	      0.00000000	     89.96735100	     12.35537568	     23.09217338	     41.85403372	     29.33144777	      0.00000000	      0.00000000
      3.31500000	     -3.31141897	      5.05300924	     -1.50551207	     -0.43297177	      0.73443768	     -0.79602109	     55.73731394	     -1.81985213	     -6.49258626	     86.51528349	      1.50997655	     27.96767363	      0.00000000	      0.00000000	     62.87696043	     -4.88257944	    -11.39711498	     23.93255088	      0.41770181	    -25.43624338	      0.00000000	      0.00000000	    -24.82960856	    -27.97563767	    -17.77747064	     82.14342423	    -13.04848235	     16.54554513	     52.91570247	     87.56479764	      0.00000000	      0.00000000	     89.96751536	     12.36679903	     22.97419388	     41.88704792	     30.68836347	      0.00000000	      0.00000000
      3.32000000	     -3.37919703	      5.02688845	     -1.48557790	     -0.43342914	      0.73360438	     -0.79613077	     55.91114619	     -1.85504816	     -6.55177996	     86.63054275	      1.51198820	     28.02358429	      0.00000000	      0.00000000	     63.04415159	     -4.88915885	    -11.44556032	     23.93612836	      0.41776425	    -25.48148911	      0.00000000	      0.00000000	    -24.81058826	    -27.91409908	    -17.74033042	     82.27067488	    -13.05999247	     16.50804203	     52.86508879	     87.57252320	      0.00000000	      0.00000000	     89.96760052	     12.46524393	     22.64087126	     42.04056397	     29.97064148	      0.00000000	      0.00000000
      3.32500000	     -3.42247442	      4.98687382	     -1.47925873	     -0.43390852	      0.73288192	     -0.79622286	     56.05428898	     -1.87145661	     -6.61571426	     86.73514612	      1.51381388	     28.01094338	      0.00000000	      0.00000000	     63.18004828	     -4.92162155	    -11.47761907	     23.94914035	      0.41799135	    -25.48211529	      0.00000000	      0.00000000	    -24.88580996	    -27.82813725	    -17.89656764	     82.47023094	    -12.90293091	     16.50595214	     52.81022901	     87.56361215	      0.00000000	      0.00000000	     89.96782158	     12.41375015	     22.25149067	     42.35869791	     29.44834544	      0.00000000	      0.00000000
      3.33000000	     -3.51091697	      4.96013570	     -1.50015599	     -0.43425021	      0.73199269	     -0.79621371	     56.25752126	     -1.86217448	     -6.65471198	     86.87805115	      1.51630804	     28.05914035	      0.00000000	      0.00000000	     63.37224360	     -4.97973364	    -11.55902352	     23.99505780	      0.41879276	    -25.38070466	      0.00000000	      0.00000000	    -24.73023515	    -27.76997954	    -17.58613715	     82.51986579	    -13.06374539	     16.40457095	     52.79107064	     87.56450211	      0.00000000	      0.00000000	     89.96780538	     12.59420181	     22.15106095	     42.34318708	     28.81887460	      0.00000000	      0.00000000
      3.33500000	     -3.51044911	      4.96807566	     -1.54567989	     -0.43469316	      0.73126028	     -0.79623849	     56.36378277	     -1.87744891	     -6.65613565	     86.98842924	      1.51823450	     28.08122044	      0.00000000	      0.00000000	     63.44085219	     -5.02068512	    -11.63630222	     23.97166003	      0.41838439	    -25.47793832	      0.00000000	      0.00000000	    -24.82438965	    -27.75607268	    -17.69349796	     82.72530664	    -12.92345468	     16.41324734	     52.72873924	     87.57150721	      0.00000000	      0.00000000	     89.96801187	     12.55143354	     21.79687868	     42.69467867	     28.17329834	      0.00000000	      0.00000000
      3.34000000	     -3.54804121	      4.99645010	     -1.55821577	     -0.43505219	      0.73052760	     -0.79630609	     56.51519515	     -1.93862426	     -6.66922902	     87.12510783	      1.52061999	     28.07982704	      0.00000000	      0.00000000	     63.53237458	     -5.01901519	    -11.70163141	     23.91554895	      0.41740507	    -25.60880230	      0.00000000	      0.00000000	    -24.75742445	    -27.73688755	    -17.44273761	     82.81794106	    -13.10927835	     16.46983732	     52.73134025	     87.47975525	      0.00000000	      0.00000000	     89.96803694	     12.65616110	     21.88206591	     42.79175650	     27.69769381	      0.00000000	      0.00000000
      3.34500000	     -3.61458038	      5.04440967	     -1.62249543	     -0.43544712	      0.72967633	     -0.79628139	     56.70891659	     -1.95690699	     -6.63979315	     87.26248740	      1.52301772	     28.12709555	      0.00000000	      0.00000000	     63.68333871	     -5.07153614	    -11.85687562	     23.95515753	      0.41809637	    -25.50238501	      0.00000000	      0.00000000	    -24.69558368	    -27.77936699	    -17.35220716	     82.92813035	    -13.05986370	     16.31672280	     52.66074091	     87.57623154	      0.00000000	      0.00000000	     89.96815026	     12.74574661	     21.57241976	     42.83635735	     28.31902339	      0.00000000	      0.00000000
      3.35000000	     -3.71538350	      5.05869162	     -1.60371477	     -0.43590265	      0.72886749	     -0.79636575	     56.93039386	     -2.00143061	     -6.64636832	     87.35398283	      1.52461462	     28.08025653	      0.00000000	      0.00000000	     63.87065507	     -5.06130690	    -11.88333295	     23.95172933	      0.41803654	    -25.47622956	      0.00000000	      0.00000000	    -24.68033726	    -27.79725212	    -17.43699750	     83.04755297	    -12.98054301	     16.20301458	     52.55635648	     87.52108286	      0.00000000	      0.00000000	     89.96831766	     12.79832060	     21.33325890	     42.99333306	     27.96648760	      0.00000000	      0.00000000
      3.35500000	     -3.71771688	      5.05758438	     -1.62190043	     -0.43623312	      0.72809801	     -0.79640946	     57.07268951	     -2.03173951	     -6.68422451	     87.55860184	      1.52818589	     27.99642104	      0.00000000	      0.00000000	     63.91526936	     -5.07169679	    -11.85181223	     23.86756017	      0.41656751	    -25.53368432	      0.00000000	      0.00000000	    -24.73543248	    -27.78437413	    -17.49800998	     83.14301921	    -12.90262054	     16.16123050	     52.60547883	     87.52566640	      0.00000000	      0.00000000	     89.96846094	     12.74424026	     21.19667478	     43.25447962	     27.57400553	      0.00000000	      0.00000000
      3.36000000	     -3.78506352	      5.02525298	     -1.66227468	     -0.43658924	      0.72716552	     -0.79641021	     57.24992903	     -2.01529781	     -6.74595836	     87.69454753	      1.53055859	     28.11639350	      0.00000000	      0.00000000	     64.08867656	     -5.14900969	    -11.87671861	     23.90856989	      0.41728326	    -25.48203794	      0.00000000	      0.00000000	    -24.59522282	    -27.68120998	    -17.18008986	     83.24662217	    -13.01111491	     16.11541185	     52.57089037	     87.59230551	      0.00000000	      0.00000000	     89.96844846	     12.88941143	     20.95828717	     43.28848364	     27.10295103	      0.00000000	      0.00000000
